<?xml version="1.0" encoding="UTF-8" standalone="no"?>
<!-- Created with Inkscape (http://www.inkscape.org/) -->

<svg
   xmlns:dc="http://purl.org/dc/elements/1.1/"
   xmlns:cc="http://creativecommons.org/ns#"
   xmlns:rdf="http://www.w3.org/1999/02/22-rdf-syntax-ns#"
   xmlns:svg="http://www.w3.org/2000/svg"
   xmlns="http://www.w3.org/2000/svg"
   xmlns:xlink="http://www.w3.org/1999/xlink"
   xmlns:sodipodi="http://sodipodi.sourceforge.net/DTD/sodipodi-0.dtd"
   xmlns:inkscape="http://www.inkscape.org/namespaces/inkscape"
   width="40.922222mm"
   height="40.922222mm"
   viewBox="0 0 145 145"
   id="svg3491"
   version="1.1"
   inkscape:version="0.91 r13725"
   sodipodi:docname="chew.svg">
  <defs
     id="defs3493">
    <linearGradient
       inkscape:collect="always"
       id="linearGradient4333">
      <stop
         style="stop-color:#00ff66;stop-opacity:1;"
         offset="0"
         id="stop4335" />
      <stop
         style="stop-color:#00ff66;stop-opacity:0;"
         offset="1"
         id="stop4337" />
    </linearGradient>
    <linearGradient
       id="linearGradient3629">
      <stop
         offset="0"
         style="stop-color:#d2d2d2"
         id="stop3631" />
      <stop
         offset="1"
         style="stop-color:#6e6e6e"
         id="stop3633" />
    </linearGradient>
    <linearGradient
       id="linearGradient3615">
      <stop
         offset="0"
         style="stop-color:#dcdad6"
         id="stop3617" />
      <stop
         offset=".10158"
         style="stop-color:#eae8e3"
         id="stop3623" />
      <stop
         offset=".37743"
         style="stop-color:#d4d2ce"
         id="stop3625" />
      <stop
         offset=".58091"
         style="stop-color:#bebcb8"
         id="stop3627" />
      <stop
         offset="1"
         style="stop-color:#a2a09d"
         id="stop3619" />
    </linearGradient>
    <linearGradient
       inkscape:collect="always"
       xlink:href="#linearGradient4333"
       id="linearGradient4339"
       x1="72.142853"
       y1="888.07648"
       x2="71.785713"
       y2="1123.4336"
       gradientUnits="userSpaceOnUse"
       spreadMethod="pad" />
  </defs>
  <sodipodi:namedview
     id="base"
     pagecolor="#ffffff"
     bordercolor="#666666"
     borderopacity="1.0"
     inkscape:pageopacity="0.0"
     inkscape:pageshadow="2"
     inkscape:zoom="2.8"
     inkscape:cx="45.949949"
     inkscape:cy="87.007677"
     inkscape:document-units="px"
     inkscape:current-layer="layer1"
     showgrid="false"
     fit-margin-top="0"
     fit-margin-left="0"
     fit-margin-right="0"
     fit-margin-bottom="0"
     inkscape:window-width="1600"
     inkscape:window-height="838"
     inkscape:window-x="-8"
     inkscape:window-y="-8"
     inkscape:window-maximized="1" />
  <metadata
     id="metadata3496">
    <rdf:RDF>
      <cc:Work
         rdf:about="">
        <dc:format>image/svg+xml</dc:format>
        <dc:type
           rdf:resource="http://purl.org/dc/dcmitype/StillImage" />
        <dc:title></dc:title>
      </cc:Work>
    </rdf:RDF>
  </metadata>
  <g
     inkscape:label="Layer 1"
     inkscape:groupmode="layer"
     id="layer1"
     transform="translate(0,-907.36218)">
    <circle
       style="fill:url(#linearGradient4339)"
       id="path4023"
       cx="72.5"
       cy="979.50507"
       r="72.5" />
    <g
       id="g4693"
       transform="matrix(0.28402909,0,0,0.28402909,19.330341,924.41753)"
       style="fill:#ffffff">
      <g
         id="g4651"
         style="fill:#ffffff">
        <path
           id="path4653"
           d="m 164.644,210.96 0,47.021 c 0,3.568 -1.486,5.15 -4.578,8.111 -3.232,3.098 -7.66,7.338 -7.66,15.332 0,7.996 4.428,12.238 7.66,15.336 3.092,2.961 4.578,4.543 4.578,8.111 0,3.57 -1.486,5.152 -4.578,8.115 -3.232,3.096 -7.66,7.338 -7.66,15.334 0,7.996 4.428,12.238 7.66,15.334 3.092,2.963 4.578,4.545 4.578,8.115 0,2.762 2.238,5 5,5 2.762,0 5,-2.238 5,-5 0,-7.998 -4.428,-12.238 -7.66,-15.336 -3.092,-2.961 -4.578,-4.543 -4.578,-8.113 0,-3.568 1.486,-5.15 4.578,-8.113 3.232,-3.098 7.66,-7.34 7.66,-15.336 0,-7.996 -4.428,-12.236 -7.66,-15.334 -3.092,-2.961 -4.578,-4.543 -4.578,-8.113 0,-3.566 1.486,-5.148 4.577,-8.109 3.233,-3.098 7.661,-7.338 7.661,-15.334 l 0,-46.998 20.891,0 0,46.998 c 0,7.996 4.427,12.236 7.66,15.334 3.091,2.961 4.576,4.543 4.576,8.109 0,3.57 -1.486,5.152 -4.577,8.113 -3.232,3.098 -7.659,7.338 -7.659,15.334 0,7.996 4.427,12.238 7.659,15.336 3.091,2.961 4.577,4.543 4.577,8.113 0,3.57 -1.486,5.152 -4.577,8.113 -3.232,3.098 -7.659,7.34 -7.659,15.336 0,2.762 2.238,5 5,5 2.762,0 5,-2.238 5,-5 0,-3.57 1.486,-5.152 4.578,-8.115 3.231,-3.098 7.658,-7.338 7.658,-15.334 0,-7.996 -4.427,-12.236 -7.659,-15.334 -3.091,-2.963 -4.577,-4.545 -4.577,-8.115 0,-3.568 1.486,-5.15 4.577,-8.113 3.232,-3.096 7.659,-7.338 7.659,-15.334 0,-7.994 -4.427,-12.234 -7.659,-15.33 -3.091,-2.963 -4.577,-4.545 -4.577,-8.113 l 0,-47.021 c 7.697,-0.246 13.887,-6.566 13.887,-14.322 0,-7.91 -6.436,-14.344 -14.346,-14.344 l -39.975,0 c -7.91,0 -14.346,6.434 -14.346,14.344 0.001,7.756 6.192,14.078 13.889,14.322 z m 0.457,-18.666 39.975,0 c 2.396,0 4.346,1.947 4.346,4.344 0,2.397 -1.949,4.346 -4.346,4.346 l -39.975,0 c -2.396,0 -4.346,-1.949 -4.346,-4.346 0,-2.397 1.95,-4.344 4.346,-4.344 z"
           inkscape:connector-curvature="0"
           style="fill:#ffffff" />
        <path
           id="path4655"
           d="m 315.789,279.033 c -11.618,-5.316 -23.123,-7.256 -28.881,-7.935 -6.342,-27.502 -10.243,-70.012 -9.06,-178.281 C 278.115,68.335 268.71,45.196 251.366,27.66 233.722,9.822 210.185,0 185.088,0 159.99,0 136.453,9.822 118.811,27.66 101.465,45.195 92.061,68.334 92.329,92.816 c 1.025,93.941 -3.879,147.748 -9.266,178.304 -5.822,0.703 -17.193,2.656 -28.676,7.912 -22.08,10.102 -33.75,27.391 -33.75,49.998 l 0,36.145 c 0,2.762 2.238,5 5,5 l 318.902,0 c 2.762,0 5,-2.238 5,-5 l 0,-36.145 c 0,-22.607 -11.671,-39.896 -33.75,-49.997 z m 6.888,15.599 -15.041,18.176 -14.16,-6.133 15.733,-19.603 c 0.886,0.367 1.772,0.754 2.659,1.164 4.055,1.873 7.642,4.017 10.809,6.396 z m -72.144,65.543 14.436,-17.986 13.092,6.357 -9.624,11.629 -17.904,0 z m 34.549,-79.215 c 2.88,0.32 8.028,1.066 14.045,2.699 l -15.166,18.895 -12.143,-5.26 13.264,-16.334 z m -19.812,24.395 12.2,5.285 -15.308,19.07 -11.957,-5.807 15.065,-18.548 z m -21.539,26.523 12.011,5.83 -14.228,17.727 -11.729,-6.387 13.946,-17.17 z m -20.356,25.067 5.934,3.23 -8.558,0 2.624,-3.23 z m 61.249,-16.33 -13.233,-6.424 15.595,-19.43 14.013,6.068 -16.375,19.786 z M 30.636,329.031 c 0,-18.586 9.31,-32.311 27.67,-40.795 8.473,-3.914 17.066,-5.818 22.727,-6.723 -0.468,2.156 -0.934,4.16 -1.395,6.014 -0.666,2.68 0.962,5.401 3.645,6.059 2.894,0.709 5.494,-1.371 6.06,-3.645 6.616,-26.598 14.239,-82.404 12.983,-197.234 -0.237,-21.79 8.142,-42.394 23.594,-58.016 C 141.67,18.769 162.682,10 185.088,10 c 22.405,0 43.419,8.769 59.168,24.691 15.452,15.622 23.831,36.226 23.593,58.016 -1.21,110.71 2.923,153.611 9.588,181.806 l -36.409,44.832 c 0.12,-0.428 -0.381,-4.547 4.782,-9.453 3.245,-3.084 7.658,-7.338 7.658,-15.334 0,-7.994 -4.427,-12.234 -7.658,-15.332 -3.091,-2.961 -4.577,-4.543 -4.577,-8.113 l 0,-69.066 c 0,-18.721 -14.296,-34.166 -32.545,-35.993 l -4.83,-14.059 c 3.128,2.729 7.779,4.438 13.07,4.438 9.636,0 17.185,-5.647 17.185,-12.857 0,-7.21 -7.549,-12.857 -17.185,-12.857 -9.636,0 -17.184,5.647 -17.184,12.857 0,0.33 0.032,0.652 0.063,0.975 -1.264,-1.555 -2.814,-3.028 -4.652,-4.223 1.313,-13.291 14.172,-23.76 29.799,-23.76 16.496,0 29.917,11.663 29.917,25.999 0,2.761 2.238,5 5,5 2.762,0 5,-2.239 5,-5 0,-19.851 -17.906,-35.999 -39.917,-35.999 -10.481,0 -20.027,3.668 -27.157,9.648 2.911,-12.27 8.114,-21.809 15.59,-28.472 13.743,-12.248 30.894,-10.462 31.138,-10.434 2.742,0.326 5.22,-1.621 5.556,-4.355 0.337,-2.74 -1.612,-5.235 -4.353,-5.572 -0.877,-0.107 -21.223,-1.979 -38.854,12.771 -21.785,18.226 -21.802,57.491 -21.81,57.49 -0.807,-26.09 -8.113,-45.42 -21.758,-57.49 -17.217,-15.231 -37.977,-12.879 -38.852,-12.771 -2.734,0.336 -4.672,2.818 -4.346,5.553 0.326,2.735 2.809,4.691 5.547,4.375 0.174,-0.02 17.365,-1.842 31.139,10.434 7.477,6.663 12.68,16.202 15.59,28.472 -7.131,-5.98 -16.677,-9.648 -27.159,-9.648 -22.011,0 -39.917,16.148 -39.917,35.999 0,2.761 2.238,5 5,5 2.761,0 5,-2.239 5,-5 0,-14.336 13.42,-25.999 29.917,-25.999 15.628,0 28.487,10.469 29.8,23.758 -1.838,1.196 -3.391,2.671 -4.656,4.229 0.031,-0.324 0.064,-0.647 0.064,-0.979 0,-7.21 -7.548,-12.857 -17.184,-12.857 -9.635,0 -17.183,5.647 -17.183,12.857 0,7.21 7.548,12.857 17.183,12.857 5.292,0 9.943,-1.71 13.072,-4.439 l -4.832,14.06 c -18.248,1.827 -32.543,17.272 -32.543,35.993 l 0,69.066 c 0,3.57 -1.486,5.152 -4.578,8.113 -3.233,3.096 -7.659,7.338 -7.659,15.332 0,7.996 4.427,12.238 7.659,15.334 3.092,2.963 4.578,4.545 4.578,8.113 0,2.762 2.238,5 5,5 2.762,0 5,-2.238 5,-5 0,-7.996 -4.428,-12.236 -7.66,-15.334 -3.091,-2.961 -4.577,-4.543 -4.577,-8.113 0,-3.568 1.485,-5.15 4.577,-8.111 3.232,-3.096 7.66,-7.338 7.66,-15.334 l 0,-69.066 c 0,-14.434 11.742,-26.176 26.175,-26.176 l 39.934,0 c 14.434,0 26.177,11.742 26.177,26.176 l 0,69.066 c 0,7.996 4.427,12.238 7.659,15.334 3.091,2.961 4.576,4.543 4.576,8.111 0,3.57 -1.486,5.152 -4.577,8.113 -3.231,3.098 -7.658,7.338 -7.658,15.334 0,2.762 2.238,5 5,5 0.833,0 1.607,-0.223 2.297,-0.584 l -30.659,37.754 -120.112,0 0,-13.348 c 0,-2.76 -2.238,-5 -5,-5 -2.762,0 -5,2.24 -5,5 l 0,13.348 -47.122,0 0,-31.145 z m 167.415,-163.16 -6.017,0 0,-2.18 c 0,-1.383 1.125,-2.508 2.507,-2.508 l 1.899,0 1.611,4.688 z M 185.09,155.524 c -1.854,-2.142 -4.416,-3.644 -7.323,-4.146 0,-3.946 7.064,-3.85 7.322,-3.891 0.259,0.041 7.343,0.09 7.343,3.888 -2.916,0.5 -5.485,2.003 -7.342,4.149 z m -11.352,5.66 1.899,0 c 1.383,0 2.508,1.125 2.508,2.508 l 0,2.18 -6.019,0 1.612,-4.688 z m 36.006,-17.608 c 0,-0.711 2.548,-2.857 7.184,-2.857 4.637,0 7.185,2.146 7.185,2.857 0,0.711 -2.548,2.857 -7.185,2.857 -4.636,0.001 -7.184,-2.146 -7.184,-2.857 z m -49.311,0 c 0,0.711 -2.548,2.857 -7.184,2.857 -4.635,0 -7.183,-2.146 -7.183,-2.857 0,-0.711 2.548,-2.857 7.183,-2.857 4.637,0 7.184,2.146 7.184,2.857 z m 179.106,216.599 -58.122,0 48.577,-58.699 c 6.329,7.473 9.545,16.674 9.545,27.555 l 0,31.144 z"
           inkscape:connector-curvature="0"
           style="fill:#ffffff" />
      </g>
      <g
         id="g4657"
         style="fill:#ffffff" />
      <g
         id="g4659"
         style="fill:#ffffff" />
      <g
         id="g4661"
         style="fill:#ffffff" />
      <g
         id="g4663"
         style="fill:#ffffff" />
      <g
         id="g4665"
         style="fill:#ffffff" />
      <g
         id="g4667"
         style="fill:#ffffff" />
      <g
         id="g4669"
         style="fill:#ffffff" />
      <g
         id="g4671"
         style="fill:#ffffff" />
      <g
         id="g4673"
         style="fill:#ffffff" />
      <g
         id="g4675"
         style="fill:#ffffff" />
      <g
         id="g4677"
         style="fill:#ffffff" />
      <g
         id="g4679"
         style="fill:#ffffff" />
      <g
         id="g4681"
         style="fill:#ffffff" />
      <g
         id="g4683"
         style="fill:#ffffff" />
      <g
         id="g4685"
         style="fill:#ffffff" />
    </g>
  </g>
</svg>
