<?xml version="1.0" encoding="UTF-8" standalone="no"?>
<!-- Created with Inkscape (http://www.inkscape.org/) -->

<svg
   xmlns:dc="http://purl.org/dc/elements/1.1/"
   xmlns:cc="http://creativecommons.org/ns#"
   xmlns:rdf="http://www.w3.org/1999/02/22-rdf-syntax-ns#"
   xmlns:svg="http://www.w3.org/2000/svg"
   xmlns="http://www.w3.org/2000/svg"
   xmlns:xlink="http://www.w3.org/1999/xlink"
   xmlns:sodipodi="http://sodipodi.sourceforge.net/DTD/sodipodi-0.dtd"
   xmlns:inkscape="http://www.inkscape.org/namespaces/inkscape"
   width="40.922222mm"
   height="40.922222mm"
   viewBox="0 0 145 145"
   id="svg3491"
   version="1.1"
   inkscape:version="0.91 r13725"
   sodipodi:docname="sign.svg">
  <defs
     id="defs3493">
    <linearGradient
       inkscape:collect="always"
       id="linearGradient4333">
      <stop
         style="stop-color:#00ff66;stop-opacity:1;"
         offset="0"
         id="stop4335" />
      <stop
         style="stop-color:#00ff66;stop-opacity:0;"
         offset="1"
         id="stop4337" />
    </linearGradient>
    <linearGradient
       id="linearGradient3629">
      <stop
         offset="0"
         style="stop-color:#d2d2d2"
         id="stop3631" />
      <stop
         offset="1"
         style="stop-color:#6e6e6e"
         id="stop3633" />
    </linearGradient>
    <linearGradient
       id="linearGradient3615">
      <stop
         offset="0"
         style="stop-color:#dcdad6"
         id="stop3617" />
      <stop
         offset=".10158"
         style="stop-color:#eae8e3"
         id="stop3623" />
      <stop
         offset=".37743"
         style="stop-color:#d4d2ce"
         id="stop3625" />
      <stop
         offset=".58091"
         style="stop-color:#bebcb8"
         id="stop3627" />
      <stop
         offset="1"
         style="stop-color:#a2a09d"
         id="stop3619" />
    </linearGradient>
    <linearGradient
       inkscape:collect="always"
       xlink:href="#linearGradient4333"
       id="linearGradient4339"
       x1="72.142853"
       y1="888.07648"
       x2="71.785713"
       y2="1123.4336"
       gradientUnits="userSpaceOnUse"
       spreadMethod="pad" />
  </defs>
  <sodipodi:namedview
     id="base"
     pagecolor="#ffffff"
     bordercolor="#666666"
     borderopacity="1.0"
     inkscape:pageopacity="0.0"
     inkscape:pageshadow="2"
     inkscape:zoom="2.8"
     inkscape:cx="45.949949"
     inkscape:cy="74.881846"
     inkscape:document-units="px"
     inkscape:current-layer="layer1"
     showgrid="false"
     fit-margin-top="0"
     fit-margin-left="0"
     fit-margin-right="0"
     fit-margin-bottom="0"
     inkscape:window-width="1600"
     inkscape:window-height="838"
     inkscape:window-x="-8"
     inkscape:window-y="-8"
     inkscape:window-maximized="1" />
  <metadata
     id="metadata3496">
    <rdf:RDF>
      <cc:Work
         rdf:about="">
        <dc:format>image/svg+xml</dc:format>
        <dc:type
           rdf:resource="http://purl.org/dc/dcmitype/StillImage" />
        <dc:title />
      </cc:Work>
    </rdf:RDF>
  </metadata>
  <g
     inkscape:label="Layer 1"
     inkscape:groupmode="layer"
     id="layer1"
     transform="translate(0,-907.36218)">
    <circle
       style="fill:url(#linearGradient4339)"
       id="path4023"
       cx="72.5"
       cy="979.50507"
       r="72.5" />
    <g
       id="g4508"
       transform="matrix(0.46327747,0,0,0.46299455,24.495807,933.03996)"
       style="fill:#ffffff">
      <g
         id="g4468"
         style="fill:#ffffff">
        <path
           id="path4470"
           d="M 206.573,61.016 175.816,40.849 c -1.222,-0.801 -2.651,-1.228 -4.112,-1.228 l -53.436,0 0,-11.516 c 0,-10.636 -8.652,-19.288 -19.288,-19.288 -10.636,0 -19.288,8.653 -19.288,19.288 l 0,44.311 -41.435,0 c -1.219,0 -2.419,0.297 -3.496,0.865 L 4.004,89.489 c -2.35,1.238 -3.869,3.625 -3.995,6.278 -0.127,2.652 1.158,5.173 3.379,6.629 l 30.757,20.167 c 1.222,0.801 2.651,1.228 4.112,1.228 l 41.436,0 0,62.353 -14.963,0 c -4.143,0 -7.5,3.358 -7.5,7.5 0,4.142 3.357,7.5 7.5,7.5 l 68.5,0 c 4.143,0 7.5,-3.358 7.5,-7.5 0,-4.142 -3.357,-7.5 -7.5,-7.5 l -14.962,0 0,-95.149 53.436,0 c 1.219,0 2.419,-0.297 3.496,-0.865 l 30.757,-16.208 c 2.35,-1.238 3.869,-3.625 3.995,-6.278 0.127,-2.651 -1.158,-5.172 -3.379,-6.628 z M 40.496,108.791 22.252,96.828 l 17.86,-9.412 39.58,0 0,21.375 -39.196,0 z m 54.196,77.352 0,-158.038 c 0,-2.364 1.924,-4.288 4.288,-4.288 2.364,0 4.288,1.924 4.288,4.288 l 0,158.038 -8.576,0 z m 75.156,-110.148 -51.58,0 0,-21.374 51.196,0 18.244,11.963 -17.86,9.411 z"
           inkscape:connector-curvature="0"
           style="fill:#ffffff" />
      </g>
      <g
         id="g4472"
         style="fill:#ffffff" />
      <g
         id="g4474"
         style="fill:#ffffff" />
      <g
         id="g4476"
         style="fill:#ffffff" />
      <g
         id="g4478"
         style="fill:#ffffff" />
      <g
         id="g4480"
         style="fill:#ffffff" />
      <g
         id="g4482"
         style="fill:#ffffff" />
      <g
         id="g4484"
         style="fill:#ffffff" />
      <g
         id="g4486"
         style="fill:#ffffff" />
      <g
         id="g4488"
         style="fill:#ffffff" />
      <g
         id="g4490"
         style="fill:#ffffff" />
      <g
         id="g4492"
         style="fill:#ffffff" />
      <g
         id="g4494"
         style="fill:#ffffff" />
      <g
         id="g4496"
         style="fill:#ffffff" />
      <g
         id="g4498"
         style="fill:#ffffff" />
      <g
         id="g4500"
         style="fill:#ffffff" />
    </g>
  </g>
</svg>
