<?xml version="1.0" encoding="UTF-8" standalone="no"?>
<!-- Created with Inkscape (http://www.inkscape.org/) -->

<svg
   xmlns:dc="http://purl.org/dc/elements/1.1/"
   xmlns:cc="http://creativecommons.org/ns#"
   xmlns:rdf="http://www.w3.org/1999/02/22-rdf-syntax-ns#"
   xmlns:svg="http://www.w3.org/2000/svg"
   xmlns="http://www.w3.org/2000/svg"
   xmlns:xlink="http://www.w3.org/1999/xlink"
   xmlns:sodipodi="http://sodipodi.sourceforge.net/DTD/sodipodi-0.dtd"
   xmlns:inkscape="http://www.inkscape.org/namespaces/inkscape"
   width="40.922222mm"
   height="40.922222mm"
   viewBox="0 0 145 145"
   id="svg3491"
   version="1.1"
   inkscape:version="0.91 r13725"
   sodipodi:docname="wars.svg">
  <defs
     id="defs3493">
    <linearGradient
       inkscape:collect="always"
       id="linearGradient4333">
      <stop
         style="stop-color:#00ff66;stop-opacity:1;"
         offset="0"
         id="stop4335" />
      <stop
         style="stop-color:#00ff66;stop-opacity:0;"
         offset="1"
         id="stop4337" />
    </linearGradient>
    <linearGradient
       id="linearGradient3629">
      <stop
         offset="0"
         style="stop-color:#d2d2d2"
         id="stop3631" />
      <stop
         offset="1"
         style="stop-color:#6e6e6e"
         id="stop3633" />
    </linearGradient>
    <linearGradient
       id="linearGradient3615">
      <stop
         offset="0"
         style="stop-color:#dcdad6"
         id="stop3617" />
      <stop
         offset=".10158"
         style="stop-color:#eae8e3"
         id="stop3623" />
      <stop
         offset=".37743"
         style="stop-color:#d4d2ce"
         id="stop3625" />
      <stop
         offset=".58091"
         style="stop-color:#bebcb8"
         id="stop3627" />
      <stop
         offset="1"
         style="stop-color:#a2a09d"
         id="stop3619" />
    </linearGradient>
    <linearGradient
       inkscape:collect="always"
       xlink:href="#linearGradient4333"
       id="linearGradient4339"
       x1="72.142853"
       y1="888.07648"
       x2="71.785713"
       y2="1123.4336"
       gradientUnits="userSpaceOnUse"
       spreadMethod="pad" />
  </defs>
  <sodipodi:namedview
     id="base"
     pagecolor="#ffffff"
     bordercolor="#666666"
     borderopacity="1.0"
     inkscape:pageopacity="0.0"
     inkscape:pageshadow="2"
     inkscape:zoom="2.8"
     inkscape:cx="45.949949"
     inkscape:cy="55.178572"
     inkscape:document-units="px"
     inkscape:current-layer="layer1"
     showgrid="false"
     fit-margin-top="0"
     fit-margin-left="0"
     fit-margin-right="0"
     fit-margin-bottom="0"
     inkscape:window-width="1600"
     inkscape:window-height="838"
     inkscape:window-x="-8"
     inkscape:window-y="-8"
     inkscape:window-maximized="1" />
  <metadata
     id="metadata3496">
    <rdf:RDF>
      <cc:Work
         rdf:about="">
        <dc:format>image/svg+xml</dc:format>
        <dc:type
           rdf:resource="http://purl.org/dc/dcmitype/StillImage" />
        <dc:title></dc:title>
      </cc:Work>
    </rdf:RDF>
  </metadata>
  <g
     inkscape:label="Layer 1"
     inkscape:groupmode="layer"
     id="layer1"
     transform="translate(0,-907.36218)">
    <circle
       style="fill:url(#linearGradient4339)"
       id="path4023"
       cx="72.5"
       cy="979.50507"
       r="72.5" />
    <g
       id="g4632"
       transform="matrix(0.22036375,0,0,0.22036375,25.083919,930.47743)"
       style="fill:#ffffff">
      <path
         id="path4594"
         d="m 426.958,410.033 -24.521,-25.405 6.942,-6.736 c 1.978,-1.919 2.029,-5.077 0.115,-7.061 L 382.78,343.155 c -0.923,-0.955 -2.188,-1.505 -3.516,-1.526 -0.027,-0.001 -0.055,-0.001 -0.082,-0.001 -1.299,0 -2.548,0.506 -3.481,1.411 l -8.065,7.825 -2.234,-2.314 c 1.79,-1.932 1.797,-4.938 -0.055,-6.857 -1.852,-1.918 -4.856,-2.019 -6.852,-0.297 l -3.048,-3.158 c 1.755,-1.934 1.752,-4.912 -0.088,-6.818 -1.84,-1.904 -4.815,-2.015 -6.811,-0.329 l -2.768,-2.868 c 1.723,-1.934 1.711,-4.889 -0.118,-6.783 -1.829,-1.895 -4.78,-2.012 -6.774,-0.357 l -6.027,-6.244 c -1.55,-1.604 -3.904,-1.928 -5.803,-0.989 l -5.227,-5.414 0.058,-0.056 c 1.015,-0.98 1.568,-2.342 1.525,-3.751 -0.044,-1.41 -0.681,-2.735 -1.753,-3.65 l -14.192,-12.105 c 1.047,-1.874 0.82,-4.276 -0.747,-5.901 l -8.819,-9.139 0.432,-0.416 c 1.986,-1.918 2.043,-5.083 0.125,-7.07 -1.917,-1.985 -5.081,-2.044 -7.07,-0.125 l -2.896,2.796 -50.491,-51.814 185.32,-190.118 c 0.003,-0.003 0.005,-0.008 0.009,-0.011 0.002,-0.003 0.006,-0.004 0.008,-0.007 5.547,-5.744 5.386,-14.935 -0.361,-20.489 -5.734,-5.537 -14.901,-5.383 -20.454,0.329 -0.006,0.007 -0.014,0.011 -0.02,0.017 L 217.799,196.472 30.627,4.403 C 30.62,4.396 30.612,4.392 30.606,4.385 25.053,-1.33 15.891,-1.479 10.155,4.056 4.409,9.604 4.246,18.795 9.792,24.544 c 0.003,0.003 0.006,0.005 0.009,0.007 l 0.009,0.012 187.757,192.672 -55.66,57.119 -3.563,-0.541 c -1.607,-0.244 -3.224,0.306 -4.349,1.471 l -5.39,5.584 c -1.551,-0.238 -3.187,0.246 -4.36,1.461 l -10.543,10.924 c -0.921,0.955 -1.425,2.235 -1.401,3.561 0.005,0.286 0.046,0.566 0.099,0.843 l -22.427,23.234 -6.944,-6.896 c -0.949,-0.942 -2.249,-1.42 -3.576,-1.452 -1.339,0.015 -2.615,0.565 -3.545,1.527 L 53.45,337.336 c -1.899,1.967 -1.865,5.095 0.074,7.021 l 7.045,6.995 -4.278,4.434 c -0.284,-0.043 -0.57,-0.07 -0.857,-0.058 -1.326,0.023 -2.589,0.572 -3.51,1.526 l -38.726,40.123 c -0.921,0.954 -1.425,2.235 -1.401,3.561 0.005,0.278 0.046,0.552 0.096,0.822 l -3.286,3.359 c -3.708,3.847 -3.601,9.998 0.244,13.716 l 14.138,13.643 c 1.882,1.817 4.315,2.72 6.744,2.72 2.535,0 5.065,-0.984 6.954,-2.938 l 3.289,-3.363 c 0.257,0.04 0.516,0.072 0.775,0.072 1.31,0 2.617,-0.511 3.599,-1.527 l 38.725,-40.119 c 1.172,-1.214 1.598,-2.867 1.306,-4.407 l 36.969,-38.303 5.927,5.772 c 0.934,0.91 2.186,1.418 3.488,1.418 0.025,0 2.007,0.027 3.598,-1.528 l 8.435,-8.742 c 1.911,-1.98 1.862,-5.133 -0.108,-7.053 l -5.957,-5.803 3.771,-3.905 c 0.25,0.038 0.501,0.07 0.754,0.07 1.31,0 2.617,-0.511 3.599,-1.527 l 10.544,-10.922 c 0.921,-0.954 1.425,-2.235 1.401,-3.561 -0.005,-0.286 -0.046,-0.566 -0.099,-0.844 l 19.704,-20.412 c 1.299,-1.346 1.738,-3.303 1.139,-5.074 -0.26,-0.769 -0.704,-1.439 -1.267,-1.982 l 41.489,-42.562 49.874,51.182 -2.86,2.761 c -1.986,1.918 -2.043,5.083 -0.125,7.07 0.982,1.017 2.289,1.527 3.599,1.527 1.249,0 2.501,-0.466 3.472,-1.402 l 0.433,-0.417 8.819,9.139 c 0.921,0.955 2.183,1.504 3.509,1.527 0.03,10e-4 1.597,-0.03 2.574,-0.682 l 11.346,14.671 c 0.869,1.124 2.176,1.825 3.594,1.929 0.121,0.009 2.251,0.064 3.834,-1.39 l 0.057,-0.055 5.226,5.414 c -0.375,0.696 -0.603,1.467 -0.618,2.272 -0.023,1.326 0.48,2.607 1.401,3.561 l 6.008,6.224 c -1.927,1.924 -1.97,5.04 -0.071,7.007 0.982,1.017 2.289,1.527 3.599,1.527 1.224,0 2.444,-0.453 3.406,-1.351 l 2.732,2.831 c -1.895,1.926 -1.93,5.017 -0.042,6.973 0.982,1.017 2.289,1.527 3.599,1.527 1.208,0 2.414,-0.446 3.371,-1.322 l 3.026,3.136 c -1.86,1.928 -1.887,4.991 -0.011,6.935 0.981,1.017 2.289,1.527 3.599,1.527 1.193,0 2.382,-0.438 3.333,-1.292 l 3.178,3.293 c -0.002,0.056 -0.017,0.108 -0.018,0.163 -0.023,1.325 0.48,2.607 1.401,3.561 l 54.699,56.67 c 1.749,1.81 4.086,2.72 6.427,2.72 2.233,0 4.472,-0.829 6.205,-2.497 l 10.395,-10.035 c 1.718,-1.656 2.687,-3.883 2.729,-6.27 0.037,-2.386 -0.854,-4.646 -2.51,-6.359 z m -296.306,-70.315 -2.359,-2.298 1.493,-1.546 2.358,2.298 -1.492,1.546 z M 16.987,17.6 c -1.718,-1.783 -1.667,-4.632 0.112,-6.349 1.782,-1.719 4.629,-1.667 6.349,0.112 0.003,0.003 0.006,0.004 0.008,0.007 0.003,0.003 0.006,0.007 0.009,0.011 l 187.354,192.255 -6.27,6.435 L 16.987,17.6 Z m 93.838,323.517 -6.302,-6.082 -7.405,-7.147 3.343,-3.463 1.341,1.295 c 0.971,0.938 2.223,1.404 3.474,1.404 1.309,0 2.615,-0.511 3.597,-1.525 1.919,-1.985 1.864,-5.151 -0.121,-7.07 l -1.345,-1.299 1.492,-1.546 1.341,1.296 c 0.971,0.938 2.224,1.404 3.474,1.404 1.309,0 2.616,-0.511 3.597,-1.525 1.919,-1.986 1.864,-5.151 -0.121,-7.07 l -1.345,-1.299 3.108,-3.221 13.707,13.23 -21.835,22.618 z m -29.403,30.463 -3.598,3.728 -13.707,-13.233 3.598,-3.727 13.707,13.232 z m -1.842,-46.916 3.446,3.422 -15.512,16.07 -3.446,-3.422 15.512,-16.07 z m -23.936,43.134 16.761,16.18 -31.762,32.906 c -0.014,-0.002 -0.026,-0.002 -0.04,-0.004 L 23.915,400.774 c -0.006,-0.03 -0.004,-0.061 -0.01,-0.091 L 55.644,367.798 Z M 29.72,425.081 16.01,411.85 l 2.419,-2.473 13.709,13.231 -2.418,2.473 z m 58.646,-60.698 -13.706,-13.23 15.513,-16.07 7.058,6.812 6.648,6.417 -15.513,16.071 z m 52.765,-51.608 -16.761,-16.176 3.598,-3.728 16.762,16.176 -3.599,3.728 z m 9.017,-12.396 -13.708,-13.229 2.956,-3.063 23.092,3.509 -12.34,12.783 z M 164.917,277.85 154.068,276.202 409.667,13.905 c 0.003,-0.003 0.005,-0.007 0.008,-0.01 0.002,-0.002 0.005,-0.004 0.007,-0.006 1.723,-1.78 4.571,-1.831 6.351,-0.116 1.78,1.722 1.832,4.568 0.116,6.349 L 164.917,277.85 Z m 59.83,-47.053 6.271,-6.433 50.278,51.595 -6.462,6.238 -50.087,-51.4 z m 54.605,60.94 11.354,-10.961 5.347,5.54 -11.354,10.962 -5.347,-5.541 z m 15.048,10.076 6.02,-5.811 10.559,9.007 -8.077,7.797 -8.502,-10.993 z m 18.685,15.063 1.552,-1.498 5.048,5.227 -1.554,1.5 -5.046,-5.229 z m 9.483,14.847 4.724,-4.563 1.847,-1.782 2.528,2.62 -6.571,6.343 -2.528,-2.618 z m 16.044,3.471 2.719,2.816 -6.572,6.343 -2.718,-2.816 6.571,-6.343 z m 9.664,10.011 3.005,3.113 -6.572,6.344 -3.005,-3.113 6.572,-6.344 z m 9.95,10.309 2.221,2.301 -6.572,6.344 -2.221,-2.301 6.572,-6.344 z m 20.841,-1.808 19.77,20.481 -3.345,3.244 -19.77,-20.48 3.345,-3.245 z m -10.531,10.201 39.347,40.76 -8.861,8.555 -39.346,-40.762 8.86,-8.553 z m 41.625,60.857 -4.195,-4.348 8.861,-8.554 4.195,4.348 -8.861,8.554 z"
         inkscape:connector-curvature="0"
         style="fill:#ffffff" />
      <g
         id="g4596"
         style="fill:#ffffff" />
      <g
         id="g4598"
         style="fill:#ffffff" />
      <g
         id="g4600"
         style="fill:#ffffff" />
      <g
         id="g4602"
         style="fill:#ffffff" />
      <g
         id="g4604"
         style="fill:#ffffff" />
      <g
         id="g4606"
         style="fill:#ffffff" />
      <g
         id="g4608"
         style="fill:#ffffff" />
      <g
         id="g4610"
         style="fill:#ffffff" />
      <g
         id="g4612"
         style="fill:#ffffff" />
      <g
         id="g4614"
         style="fill:#ffffff" />
      <g
         id="g4616"
         style="fill:#ffffff" />
      <g
         id="g4618"
         style="fill:#ffffff" />
      <g
         id="g4620"
         style="fill:#ffffff" />
      <g
         id="g4622"
         style="fill:#ffffff" />
      <g
         id="g4624"
         style="fill:#ffffff" />
    </g>
  </g>
</svg>
