<?xml version="1.0" encoding="UTF-8" standalone="no"?>
<!-- Created with Inkscape (http://www.inkscape.org/) -->

<svg
   xmlns:dc="http://purl.org/dc/elements/1.1/"
   xmlns:cc="http://creativecommons.org/ns#"
   xmlns:rdf="http://www.w3.org/1999/02/22-rdf-syntax-ns#"
   xmlns:svg="http://www.w3.org/2000/svg"
   xmlns="http://www.w3.org/2000/svg"
   xmlns:xlink="http://www.w3.org/1999/xlink"
   xmlns:sodipodi="http://sodipodi.sourceforge.net/DTD/sodipodi-0.dtd"
   xmlns:inkscape="http://www.inkscape.org/namespaces/inkscape"
   width="40.922222mm"
   height="40.922222mm"
   viewBox="0 0 145 145"
   id="svg3491"
   version="1.1"
   inkscape:version="0.91 r13725"
   sodipodi:docname="yoda.svg">
  <defs
     id="defs3493">
    <linearGradient
       inkscape:collect="always"
       id="linearGradient4333">
      <stop
         style="stop-color:#00ff66;stop-opacity:1;"
         offset="0"
         id="stop4335" />
      <stop
         style="stop-color:#00ff66;stop-opacity:0;"
         offset="1"
         id="stop4337" />
    </linearGradient>
    <linearGradient
       id="linearGradient3629">
      <stop
         offset="0"
         style="stop-color:#d2d2d2"
         id="stop3631" />
      <stop
         offset="1"
         style="stop-color:#6e6e6e"
         id="stop3633" />
    </linearGradient>
    <linearGradient
       id="linearGradient3615">
      <stop
         offset="0"
         style="stop-color:#dcdad6"
         id="stop3617" />
      <stop
         offset=".10158"
         style="stop-color:#eae8e3"
         id="stop3623" />
      <stop
         offset=".37743"
         style="stop-color:#d4d2ce"
         id="stop3625" />
      <stop
         offset=".58091"
         style="stop-color:#bebcb8"
         id="stop3627" />
      <stop
         offset="1"
         style="stop-color:#a2a09d"
         id="stop3619" />
    </linearGradient>
    <linearGradient
       inkscape:collect="always"
       xlink:href="#linearGradient4333"
       id="linearGradient4339"
       x1="72.142853"
       y1="888.07648"
       x2="71.785713"
       y2="1123.4336"
       gradientUnits="userSpaceOnUse"
       spreadMethod="pad" />
  </defs>
  <sodipodi:namedview
     id="base"
     pagecolor="#ffffff"
     bordercolor="#666666"
     borderopacity="1.0"
     inkscape:pageopacity="0.0"
     inkscape:pageshadow="2"
     inkscape:zoom="2.8"
     inkscape:cx="45.949949"
     inkscape:cy="72.007676"
     inkscape:document-units="px"
     inkscape:current-layer="layer1"
     showgrid="false"
     fit-margin-top="0"
     fit-margin-left="0"
     fit-margin-right="0"
     fit-margin-bottom="0"
     inkscape:window-width="1600"
     inkscape:window-height="838"
     inkscape:window-x="-8"
     inkscape:window-y="-8"
     inkscape:window-maximized="1" />
  <metadata
     id="metadata3496">
    <rdf:RDF>
      <cc:Work
         rdf:about="">
        <dc:format>image/svg+xml</dc:format>
        <dc:type
           rdf:resource="http://purl.org/dc/dcmitype/StillImage" />
        <dc:title></dc:title>
      </cc:Work>
    </rdf:RDF>
  </metadata>
  <g
     inkscape:label="Layer 1"
     inkscape:groupmode="layer"
     id="layer1"
     transform="translate(0,-907.36218)">
    <circle
       style="fill:url(#linearGradient4339)"
       id="path4023"
       cx="72.5"
       cy="979.50507"
       r="72.5" />
    <g
       id="g4756"
       transform="matrix(0.27438146,0,0,0.27438146,18.994394,922.11924)"
       style="fill:#ffffff">
      <g
         id="g4714"
         style="fill:#ffffff">
        <path
           id="path4716"
           d="m 241.051,130.729 c -17.783,0 -31.067,6.146 -37.405,17.305 -5.789,10.191 -5.066,23.173 1.897,35.886 -0.919,1.226 -4.152,3.208 -9.535,3.208 l -0.005,0 c -5.382,0 -8.614,-1.982 -9.534,-3.208 6.963,-12.712 7.686,-25.695 1.897,-35.886 -6.339,-11.159 -19.623,-17.305 -37.405,-17.305 -29.049,0 -36.905,23.429 -37.001,35.816 -0.021,2.762 2.2,5.018 4.961,5.039 0.013,0 0.026,0 0.04,0 1.519,0 2.864,-0.692 3.782,-1.765 1.808,9.198 16.159,13.997 30.35,13.997 9.997,0 20.072,-2.382 25.788,-7.005 -0.505,1.066 -1.056,2.137 -1.674,3.209 -2.69,2.563 -13.339,13.352 -19.56,29.003 -0.581,-0.236 -1.21,-0.38 -1.876,-0.38 -2.761,0 -5,2.238 -5,5 0,2.693 1.433,4.731 3.569,6.308 -0.878,4.19 -1.36,8.609 -1.264,13.222 0.057,2.726 2.284,4.895 4.997,4.895 0.035,0 0.071,0 0.106,-0.001 2.761,-0.058 4.953,-2.343 4.895,-5.104 -0.065,-3.12 0.2,-6.152 0.707,-9.078 0.937,0.235 1.861,0.445 2.746,0.631 7.927,1.666 18.395,2.584 29.477,2.584 0.001,0 0.001,0 0.002,0 0.001,0 0.002,0 0.003,0 11.081,0 21.55,-0.918 29.477,-2.584 0.888,-0.186 1.814,-0.396 2.753,-0.633 0.503,2.924 0.766,5.956 0.701,9.08 -0.058,2.761 2.134,5.046 4.895,5.104 0.035,0.001 0.071,0.001 0.106,0.001 2.713,0 4.94,-2.171 4.997,-4.895 0.096,-4.612 -0.386,-9.032 -1.265,-13.223 2.136,-1.576 3.568,-3.613 3.568,-6.307 0,-2.762 -2.239,-5 -5,-5 -0.666,0 -1.295,0.144 -1.876,0.38 -6.22,-15.65 -16.869,-26.439 -19.559,-29.003 -0.618,-1.071 -1.169,-2.142 -1.674,-3.208 5.716,4.622 15.791,7.004 25.787,7.004 14.191,0 28.542,-4.799 30.35,-13.997 0.918,1.072 2.264,1.765 3.782,1.765 0.013,0 0.026,0 0.039,0 2.761,-0.021 4.982,-2.277 4.962,-5.038 -0.096,-12.388 -7.952,-35.817 -37.001,-35.817 z m -108.504,37.135 c 0.149,-0.709 1.857,-2.164 5.136,-3.465 -0.248,1.107 -0.385,2.257 -0.385,3.439 0,1.185 0.14,2.336 0.389,3.446 -3.282,-1.294 -4.992,-2.738 -5.14,-3.42 z m 20.546,5.769 c -3.195,0 -5.795,-2.6 -5.795,-5.795 0,-3.197 2.6,-5.798 5.795,-5.798 3.196,0 5.796,2.601 5.796,5.798 0,3.196 -2.6,5.795 -5.796,5.795 z m 15.412,-2.358 c 0.247,-1.107 0.384,-2.256 0.384,-3.437 0,-1.186 -0.138,-2.337 -0.388,-3.447 3.28,1.294 4.989,2.735 5.138,3.418 -0.148,0.71 -1.855,2.165 -5.134,3.466 z m -15.412,-19.418 c -11.915,0 -23.941,3.384 -28.564,9.913 1.485,-7.512 6.871,-21.041 26.432,-21.041 14.029,0 24.225,4.349 28.71,12.244 1.64,2.888 2.479,6.171 2.558,9.693 -4.121,-7.115 -16.688,-10.809 -29.136,-10.809 z m 72.537,62.38 c -5.973,1.479 -15.971,2.864 -29.622,2.864 -0.001,0 -0.001,0 -0.003,0 -0.001,0 -0.001,0 -0.002,0 -13.637,0 -23.627,-1.383 -29.603,-2.859 3.659,-9.904 9.549,-17.868 13.611,-22.592 3.541,3.367 9.268,5.478 15.991,5.478 l 0.005,0 c 6.73,0 12.463,-2.114 16.003,-5.487 4.07,4.714 9.966,12.669 13.62,22.596 z m -7.258,-46.373 c 0.149,-0.709 1.857,-2.164 5.136,-3.465 -0.248,1.108 -0.386,2.257 -0.386,3.439 0,1.187 0.146,2.337 0.396,3.448 -3.287,-1.294 -4.998,-2.739 -5.146,-3.422 z m 20.546,5.769 c -3.196,0 -5.796,-2.6 -5.796,-5.795 0,-3.197 2.6,-5.798 5.796,-5.798 3.196,0 5.796,2.601 5.796,5.798 0,3.196 -2.6,5.795 -5.796,5.795 z m 15.402,-2.354 c 0.249,-1.108 0.394,-2.257 0.394,-3.441 0,-1.184 -0.133,-2.336 -0.381,-3.445 3.276,1.294 4.983,2.734 5.132,3.416 -0.149,0.71 -1.86,2.168 -5.145,3.47 z m -15.402,-19.422 c -12.447,0 -25.014,3.694 -29.135,10.808 0.079,-3.521 0.917,-6.805 2.558,-9.692 4.485,-7.895 14.681,-12.243 28.71,-12.243 11.036,0 18.885,4.191 23.329,12.459 1.605,2.987 2.505,6.021 3.014,8.455 -4.687,-6.447 -16.638,-9.787 -28.476,-9.787 z"
           inkscape:connector-curvature="0"
           style="fill:#ffffff" />
        <path
           id="path4718"
           d="m 391.337,128.869 c -7.978,-13.769 -29.421,-14.427 -46.828,-10.449 -2.373,0.542 -4.687,1.396 -6.924,2.222 -6.462,2.385 -12.567,4.638 -21.824,0.88 -11.54,-4.685 -20.893,-6.903 -28.356,-7.706 l 3.001,-3.003 c 1.952,-1.953 1.951,-5.119 -0.002,-7.07 -1.953,-1.953 -5.118,-1.952 -7.071,0.002 l -3.638,3.64 c -1.788,-9.694 -5.97,-18.465 -12.439,-26.094 l 0,-16.54 c 0,-2.762 -2.239,-5 -5,-5 -2.761,0 -5,2.238 -5,5 l 0,7.037 c -2.445,-1.896 -5.068,-3.693 -7.879,-5.379 -2.582,-1.548 -5.239,-2.937 -7.933,-4.207 l 0,-13.284 c 0,-2.762 -2.239,-5 -5,-5 -2.761,0 -5,2.238 -5,5 l 0,9.197 c -10.41,-3.627 -20.814,-5.483 -29.459,-6.07 l 0,-13.018 c 0,-2.762 -2.239,-5 -5,-5 -2.761,0 -5,2.238 -5,5 l 0,12.912 c -8.483,0.399 -18.907,2.066 -29.46,5.523 l 0,-8.543 c 0,-2.762 -2.239,-5 -5,-5 -2.761,0 -5,2.238 -5,5 l 0,12.377 c -3.366,1.498 -6.685,3.19 -9.89,5.112 -2.439,1.463 -4.737,3.009 -6.901,4.63 l 0,-5.31 c 0,-2.762 -2.239,-5 -5,-5 -2.761,0 -5,2.238 -5,5 l 0,14.44 c -7.025,7.888 -11.537,17.045 -13.412,27.22 l -3.643,-3.645 c -1.953,-1.954 -5.118,-1.955 -7.071,-0.002 -1.953,1.951 -1.954,5.117 -0.002,7.07 l 3.001,3.002 c -7.463,0.803 -16.816,3.022 -28.357,7.707 -9.257,3.756 -15.362,1.505 -21.823,-0.88 -2.237,-0.826 -4.551,-1.68 -6.925,-2.222 -17.406,-3.979 -38.849,-3.319 -46.827,10.449 -1.279,2.207 -0.691,5.024 1.365,6.536 0.112,0.082 16.541,13.066 28.096,22.272 14.749,11.751 40.709,34.795 70.139,37.001 l -5.84,3.763 c -2.322,1.495 -2.991,4.59 -1.496,6.911 0.956,1.483 2.565,2.293 4.208,2.293 0.927,0 1.865,-0.258 2.703,-0.798 l 3.246,-2.091 c 1.911,7.023 5.008,12.965 9.988,17.004 3.283,2.662 6.254,5.162 8.978,7.518 -9.46,3.55 -25.742,10.492 -42.202,21.376 -33.629,22.238 -51.405,50.292 -51.405,81.128 l 0,21.203 c 0,2.762 2.239,5 5,5 l 325.102,0 c 2.761,0 5,-2.238 5,-5 l 0,-21.203 c 0,-30.836 -17.776,-58.89 -51.405,-81.128 -16.455,-10.881 -32.739,-17.824 -42.201,-21.376 2.724,-2.355 5.695,-4.855 8.978,-7.518 4.98,-4.039 8.077,-9.981 9.988,-17.004 l 3.246,2.091 c 0.837,0.54 1.775,0.798 2.703,0.798 1.643,0 3.252,-0.81 4.208,-2.293 1.496,-2.321 0.826,-5.416 -1.496,-6.911 l -5.84,-3.763 c 29.431,-2.207 56.181,-24.32 70.14,-37.001 8.121,-7.378 27.982,-22.19 28.095,-22.272 2.055,-1.51 2.644,-4.326 1.364,-6.534 z m -351.27,24.132 c 15.11,6.285 30.743,11.76 38.514,11.327 9.209,-0.524 20.381,0.822 21.563,10.114 0.003,3.438 0.058,6.867 0.21,10.234 -23.839,-2.084 -46.437,-19.943 -60.287,-31.675 z m 97.981,194.984 -99.593,0 0,-16.203 c 0,-46.269 45.37,-74.371 73.325,-87.294 -3.273,5.587 -5.734,12.522 -5.894,20.836 -0.31,16.091 6.591,25.38 17.047,34.376 13.547,11.656 15.114,29.831 15.114,42.487 l 0,5.798 z m 52.955,0 -42.955,0 0,-5.798 c 0,-22.926 -6.081,-39.304 -18.591,-50.067 -8.774,-7.55 -13.808,-14.322 -13.572,-26.603 0.249,-12.921 7.82,-21.64 13.157,-26.199 0.154,7.116 1.694,18.688 9.14,27.512 9.428,11.173 20.736,15.347 30.712,19.028 13.787,5.089 22.109,8.16 22.109,26.208 l 0,35.919 z m 5.003,-56.247 c -5.467,-8.54 -14.652,-11.941 -23.649,-15.262 -9.246,-3.413 -18.807,-6.941 -26.532,-16.097 -3.767,-4.465 -5.486,-10.134 -6.24,-15.068 15.85,14.935 28.18,20.351 56.421,20.351 28.241,0 40.58,-5.422 56.452,-20.379 -0.749,4.927 -2.475,10.599 -6.271,15.097 -7.725,9.155 -17.286,12.684 -26.532,16.097 -8.996,3.319 -18.182,6.721 -23.649,15.261 z m 157.551,40.044 0,16.203 -99.593,0 0,-5.798 c 0,-12.656 1.567,-30.831 15.114,-42.487 10.456,-8.996 17.357,-18.285 17.047,-34.376 -0.16,-8.326 -2.628,-15.27 -5.909,-20.861 27.955,12.898 73.341,40.978 73.341,87.319 z m -77.43,-66.265 c 0.236,12.28 -4.797,19.053 -13.572,26.603 -12.51,10.764 -18.591,27.142 -18.591,50.067 l 0,5.798 -42.955,0 0,-35.92 c 0,-18.048 8.322,-21.119 22.108,-26.208 9.977,-3.682 21.284,-7.855 30.712,-19.028 7.435,-8.81 8.982,-20.358 9.14,-27.478 5.333,4.587 12.911,13.335 13.158,26.166 z m 15.531,-80.84 c 0.153,-3.367 0.208,-6.796 0.211,-10.232 1.178,-9.294 12.353,-10.64 21.562,-10.116 7.764,0.45 23.379,-5.015 38.479,-11.297 -13.852,11.73 -36.432,29.561 -60.252,31.645 z m 22.338,-30.333 c -26.889,-1.511 -31.405,12.922 -32.097,19.203 -0.01,0.094 0.895,31.915 -9.269,40.445 -11.206,9.405 -19.113,16.534 -25.339,22.416 -16.335,15.43 -20.335,19.192 -51.286,19.254 -30.95,-0.062 -34.951,-3.824 -51.285,-19.254 -6.227,-5.882 -14.166,-12.972 -25.339,-22.416 -9.77,-8.258 -9.259,-40.354 -9.27,-40.446 -0.692,-6.28 -5.215,-20.718 -32.097,-19.202 -9.642,0.574 -42.518,-13.656 -64.726,-24.452 8.062,-5.148 23.09,-3.755 31.984,-1.725 1.745,0.399 3.661,1.107 5.69,1.855 6.837,2.523 16.2,5.978 29.047,0.764 13.805,-5.604 23.792,-7.23 30.682,-7.295 9.472,0.022 12.401,2.326 12.404,2.328 2.162,1.72 5.307,1.358 7.025,-0.803 1.708,-2.15 1.358,-5.271 -0.771,-6.995 0,0 -3.008,-2.25 -7.896,-3.449 0.669,-9.263 3.764,-17.511 9.217,-24.699 4.688,1.172 18.972,6.443 21.304,27.468 0.284,2.557 2.449,4.448 4.963,4.448 0.184,0 0.37,-0.01 0.558,-0.03 2.745,-0.305 4.723,-2.776 4.418,-5.521 -2.239,-20.179 -14.01,-30.265 -23.681,-34.382 2.835,-2.452 6.004,-4.749 9.544,-6.872 1.863,-1.117 3.771,-2.142 5.704,-3.099 7.637,3.974 22.399,15.467 22.399,44.904 0,2.762 2.239,5 5,5 2.761,0 5,-2.238 5,-5 0,-27.728 -11.611,-42.271 -21.148,-49.543 11.435,-3.875 22.819,-5.417 31.271,-5.417 l 0.005,0 c 8.451,0 19.836,1.542 31.271,5.418 -9.536,7.271 -21.148,21.813 -21.148,49.542 0,2.762 2.239,5 5,5 2.761,0 5,-2.238 5,-5 0,-29.438 14.762,-40.931 22.4,-44.903 1.932,0.955 3.84,1.98 5.703,3.098 3.538,2.122 6.707,4.418 9.541,6.869 -9.67,4.121 -21.439,14.212 -23.678,34.385 -0.304,2.745 1.674,5.217 4.418,5.521 0.188,0.021 0.373,0.03 0.558,0.03 2.514,0 4.679,-1.892 4.963,-4.448 2.333,-21.027 16.619,-26.297 21.305,-27.468 5.454,7.189 8.547,15.437 9.217,24.7 -4.889,1.199 -7.903,3.448 -7.903,3.448 -2.13,1.724 -2.479,4.845 -0.771,6.995 1.719,2.161 4.863,2.522 7.025,0.803 0.002,-0.002 2.953,-2.327 12.522,-2.33 6.887,0.082 16.845,1.727 30.57,7.297 12.847,5.215 22.21,1.759 29.047,-0.765 2.029,-0.748 3.945,-1.455 5.689,-1.855 8.896,-2.03 23.923,-3.426 31.985,1.725 -22.199,10.797 -55.045,25.031 -64.725,24.453 z"
           inkscape:connector-curvature="0"
           style="fill:#ffffff" />
      </g>
      <g
         id="g4720"
         style="fill:#ffffff" />
      <g
         id="g4722"
         style="fill:#ffffff" />
      <g
         id="g4724"
         style="fill:#ffffff" />
      <g
         id="g4726"
         style="fill:#ffffff" />
      <g
         id="g4728"
         style="fill:#ffffff" />
      <g
         id="g4730"
         style="fill:#ffffff" />
      <g
         id="g4732"
         style="fill:#ffffff" />
      <g
         id="g4734"
         style="fill:#ffffff" />
      <g
         id="g4736"
         style="fill:#ffffff" />
      <g
         id="g4738"
         style="fill:#ffffff" />
      <g
         id="g4740"
         style="fill:#ffffff" />
      <g
         id="g4742"
         style="fill:#ffffff" />
      <g
         id="g4744"
         style="fill:#ffffff" />
      <g
         id="g4746"
         style="fill:#ffffff" />
      <g
         id="g4748"
         style="fill:#ffffff" />
    </g>
  </g>
</svg>
